arm26_states
version=1
nRows=2
nColumns=17
inDegrees=yes

# SIMM Motion File Header:
name arm26_states
datacolumns 17
datarows 2
otherdata 1
range 0.488859 0.489000
endheader
time	/jointset/r_shoulder/r_shoulder_elev/value	/jointset/r_shoulder/r_shoulder_elev/speed	/jointset/r_elbow/r_elbow_flex/value	/jointset/r_elbow/r_elbow_flex/speed	/forceset/TRIlong/activation	/forceset/TRIlong/fiber_length	/forceset/TRIlat/activation	/forceset/TRIlat/fiber_length	/forceset/TRImed/activation	/forceset/TRImed/fiber_length	/forceset/BIClong/activation	/forceset/BIClong/fiber_length	/forceset/BICshort/activation	/forceset/BICshort/fiber_length	/forceset/BRA/activation	/forceset/BRA/fiber_length
      0.48885926000000001768	     -0.29817221546630895412	     -0.99012894147787156029	    126.75189181474007682482	    260.04267325516821074416	      0.02726435169623218913	      0.18147974986291112720	      0.27429752396445433726	      0.11524775359111855133	      0.27241973108060463238	      0.11030465911271891688	      0.99930243028030163455	      0.06520007005641084707	      0.94534892972989748028	      0.06412852111153365120	      0.02033514728985320527	      0.05369142086954390575
      0.48899999999999999023	     -0.29831144621800154138	     -0.98844177127252974557	    126.78849045574280296478	    260.04599846688000752692	      0.02726029753803976829	      0.18149154802187883462	      0.27414727108634456831	      0.11526045079731131460	      0.27228977260846831676	      0.11031727260400531199	      0.99930732438978253640	      0.06517335838127552572	      0.94574841635856399247	      0.06410084133608143220	      0.02033452229672668560	      0.05367685298753929746
